<svg width="25" height="18" viewBox="0 0 25 18" fill="none" xmlns="http://www.w3.org/2000/svg">
<path d="M0.638532 3.93168C0.748701 2.23559 2.11234 0.90636 3.80993 0.822257C6.26814 0.70047 9.78165 0.553589 12.429 0.553589C15.0763 0.553589 18.5898 0.70047 21.048 0.822257C22.7456 0.90636 24.1092 2.23559 24.2194 3.93168C24.3249 5.55667 24.429 7.55615 24.429 9.12502C24.429 10.6939 24.3249 12.6934 24.2194 14.3184C24.1092 16.0144 22.7456 17.3437 21.048 17.4278C18.5898 17.5496 15.0763 17.6964 12.429 17.6964C9.78165 17.6964 6.26814 17.5496 3.80993 17.4278C2.11234 17.3437 0.748701 16.0144 0.638532 14.3184C0.532981 12.6934 0.428955 10.6939 0.428955 9.12502C0.428955 7.55615 0.532981 5.55667 0.638532 3.93168Z" fill="#FC0D1B"/>
<path d="M9.85751 5.69641V12.5536L16.7147 9.12498L9.85751 5.69641Z" fill="white"/>
</svg>
